<svg 
 xmlns="http://www.w3.org/2000/svg"
 xmlns:xlink="http://www.w3.org/1999/xlink"
 width="2682px" height="1774px">
<path fill-rule="evenodd"  fill="rgb(238, 238, 238)"
 d="M340.000,253.980 L2260.000,253.980 L2260.000,1333.980 L340.000,1333.980 L340.000,253.980 Z"/>
<rect  x="340px" y="254px" width="1920px" height="1080px" />
<path fill-rule="evenodd"  opacity="0.141" fill="rgb(0, 0, 0)"
 d="M641.500,0.000 C995.791,0.000 1283.000,287.209 1283.000,641.500 C1283.000,995.791 995.791,1283.000 641.500,1283.000 C287.209,1283.000 0.000,995.791 0.000,641.500 C0.000,287.209 287.209,0.000 641.500,0.000 Z"/>
<path fill-rule="evenodd"  opacity="0.141" fill="rgb(0, 0, 0)"
 d="M2231.500,873.000 C2480.304,873.000 2682.000,1074.696 2682.000,1323.500 C2682.000,1572.304 2480.304,1774.000 2231.500,1774.000 C1982.696,1774.000 1781.000,1572.304 1781.000,1323.500 C1781.000,1074.696 1982.696,873.000 2231.500,873.000 Z"/>
</svg>